<svg width="183.10000610351562px" height="131.20000610351562px" xmlns="http://www.w3.org/2000/svg" viewBox="158.4499969482422 9.39999694824219 183.10000610351562 131.20000610351562" style="background: rgba(0, 0, 0, 0);" preserveAspectRatio="xMidYMid"><defs><filter id="editing-extrusion" x="-100%" y="-100%" width="300%" height="300%"><feFlood result="color1" flood-color="#444"></feFlood><feConvolveMatrix order="3,3" divisor="1" kernelMatrix="1 0 0 0 1 0 0 0 1" in="SourceAlpha" result="extrude"></feConvolveMatrix><feComposite in="color1" in2="extrude" result="comp-extrude" operator="in"></feComposite><feOffset dx="1.5" dy="1.5" in="comp-extrude" result="offset-extrude"></feOffset><feMerge><feMergeNode in="offset-extrude"></feMergeNode><feMergeNode in="SourceGraphic"></feMergeNode></feMerge></filter></defs><g filter="url(#editing-extrusion)"><g transform="translate(189.35538387298584, 99.0199966430664)"><path d="M18.00-18.14L18.00-18.14L18.00-18.14Q16.77-18.14 14.50-18.33L14.50-18.33L14.50-3.25L20.80-1.95L20.80-1.95Q21.00-0.72 20.48 0.33L20.48 0.33L20.48 0.33Q14.63 0 11.25 0L11.25 0L11.25 0Q8.38 0 2.34 0.33L2.34 0.33L2.34 0.33Q2.15-0.91 2.47-1.95L2.47-1.95L2.47-1.95Q6.04-2.41 7.67-3.25L7.67-3.25L7.67-42.25L2.67-43.55L2.67-43.55Q2.47-44.79 2.99-45.83L2.99-45.83L2.99-45.83Q8.84-45.50 10.92-45.50L10.92-45.50L10.92-45.50Q13.07-45.50 15.93-45.79L15.93-45.79L15.93-45.79Q18.79-46.09 19.70-46.09L19.70-46.09L19.70-46.09Q27.76-46.09 32.34-42.51L32.34-42.51L32.34-42.51Q36.92-38.94 36.92-32.63L36.92-32.63L36.92-32.63Q36.92-28.80 35.30-25.94L35.30-25.94L35.30-25.94Q33.67-23.07 30.91-21.39L30.91-21.39L30.91-21.39Q28.14-19.70 24.89-18.91L24.89-18.91L24.89-18.91Q21.64-18.14 18.00-18.14ZM19.24-43.16L19.24-43.16L19.24-43.16Q16.96-43.16 14.50-42.58L14.50-42.58L14.50-21.52L14.50-21.52Q16.57-21.13 18.53-21.13L18.53-21.13L18.53-21.13Q23.79-21.13 26.88-23.95L26.88-23.95L26.88-23.95Q29.96-26.78 29.96-32.24L29.96-32.24L29.96-32.24Q29.96-37.18 26.91-40.17L26.91-40.17L26.91-40.17Q23.86-43.16 19.24-43.16ZM77.74-42.25L77.74-42.25L62.14 1.30L62.14 1.30Q61.04 1.95 59.80 1.95L59.80 1.95L42.45-42.25L37.44-43.55L37.44-43.55Q37.25-44.79 37.77-45.83L37.77-45.83L37.77-45.83Q43.62-45.50 46.67-45.50L46.67-45.50L46.67-45.50Q49.59-45.50 55.58-45.83L55.58-45.83L55.58-45.83Q55.77-44.59 55.45-43.55L55.45-43.55L55.45-43.55Q52.52-43.16 50.25-42.25L50.25-42.25L59.67-17.03L59.67-17.03Q61.75-11.38 62.40-7.61L62.40-7.61L62.53-7.61L62.53-7.61Q63.90-12.22 65.52-17.36L65.52-17.36L74.16-42.25L69.16-43.55L69.16-43.55Q68.97-44.79 69.48-45.83L69.48-45.83L69.48-45.83Q74.03-45.50 76.18-45.50L76.18-45.50L76.18-45.50Q78.46-45.50 83.20-45.83L83.20-45.83L83.20-45.83Q83.40-44.59 83.07-43.55L83.07-43.55L83.07-43.55Q79.37-43.03 77.74-42.25ZM100.10-18.14L100.10-18.14L100.10-18.14Q98.86-18.14 96.59-18.33L96.59-18.33L96.59-3.25L102.89-1.95L102.89-1.95Q103.09-0.72 102.57 0.33L102.57 0.33L102.57 0.33Q96.72 0 93.34 0L93.34 0L93.34 0Q90.48 0 84.44 0.33L84.44 0.33L84.44 0.33Q84.24-0.91 84.56-1.95L84.56-1.95L84.56-1.95Q88.14-2.41 89.77-3.25L89.77-3.25L89.77-42.25L84.76-43.55L84.76-43.55Q84.56-44.79 85.08-45.83L85.08-45.83L85.08-45.83Q90.94-45.50 93.02-45.50L93.02-45.50L93.02-45.50Q95.16-45.50 98.02-45.79L98.02-45.79L98.02-45.79Q100.88-46.09 101.79-46.09L101.79-46.09L101.79-46.09Q109.85-46.09 114.43-42.51L114.43-42.51L114.43-42.51Q119.02-38.94 119.02-32.63L119.02-32.63L119.02-32.63Q119.02-28.80 117.39-25.94L117.39-25.94L117.39-25.94Q115.77-23.07 113.00-21.39L113.00-21.39L113.00-21.39Q110.24-19.70 106.99-18.91L106.99-18.91L106.99-18.91Q103.74-18.14 100.10-18.14ZM101.34-43.16L101.34-43.16L101.34-43.16Q99.06-43.16 96.59-42.58L96.59-42.58L96.59-21.52L96.59-21.52Q98.67-21.13 100.62-21.13L100.62-21.13L100.62-21.13Q105.88-21.13 108.97-23.95L108.97-23.95L108.97-23.95Q112.06-26.78 112.06-32.24L112.06-32.24L112.06-32.24Q112.06-37.18 109.00-40.17L109.00-40.17L109.00-40.17Q105.95-43.16 101.34-43.16Z" fill="#ccc"></path></g></g><style>text {
  font-size: 100px;
  font-family: Arial white;
  dominant-baseline: central;
  text-anchor: middle;
}</style></svg>